/* XPM */
static char *b25ddd1698164bc38c1bc46c585d9552huE7UtYjrNtWzf7T[] = {
/* columns rows colors chars-per-pixel */
"54 54 5 1 ",
"  c #0B0B0B",
". c gray40",
"X c gray17",
"o c gray30",
"O c gray10",
/* pixels */
"                                                      ",
"                                                      ",
"                                                      ",
"                                                      ",
"                                                      ",
"                                                      ",
"                                                      ",
"                                                      ",
"                                                      ",
"                                                      ",
"                                                      ",
"                                                      ",
"                                                      ",
"                                                      ",
"                                                      ",
"                                                      ",
"                                                      ",
"                                                      ",
"                                                      ",
"                                                      ",
"              OXO                                     ",
"              X.ooXO                                  ",
"              X.....ooXO                              ",
"              X........ooXO                           ",
"              X............ooXO                       ",
"              X...............ooXO                    ",
"              X...................ooXO                ",
"              X......................oX               ",
"              X...................ooXO                ",
"              X...............ooXO                    ",
"              X............ooXO                       ",
"              X........ooXO                           ",
"              X.....ooXO                              ",
"              X.ooXO                                  ",
"              OXO                                     ",
"                                                      ",
"                                                      ",
"                                                      ",
"                                                      ",
"                                                      ",
"                                                      ",
"                                                      ",
"                                                      ",
"                                                      ",
"                                                      ",
"                                                      ",
"                                                      ",
"                                                      ",
"                                                      ",
"                                                      ",
"                                                      ",
"                                                      ",
"                                                      ",
"                                                      "
};
