/* XPM */
static char *_daeed19487d45828b35e987589f94a4acRyfVBbOCgxnb8Z[] = {
/* columns rows colors chars-per-pixel */
"54 54 6 1 ",
"  c #0B0B0B",
". c gray40",
"X c gray17",
"o c gray10",
"O c #565656",
"+ c #444444",
/* pixels */
"                                                      ",
"                                                      ",
"                                                      ",
"                                                      ",
"                                                      ",
"                                                      ",
"                                                      ",
"                                                      ",
"                                                      ",
"                                                      ",
"                                                      ",
"                                                      ",
"                                                      ",
"                                                      ",
"                                                      ",
"                           X                          ",
"                          oOo                         ",
"                          X.X                         ",
"                          +.+                         ",
"                          O.O                         ",
"                         o...o                        ",
"                         X...X                        ",
"                         +...+                        ",
"                        oO...Oo                       ",
"                        X.....X                       ",
"                        +.....+                       ",
"                        O.....O                       ",
"                       o.......o                      ",
"                       X.......X                      ",
"                       +.......+                      ",
"                      oO.......Oo                     ",
"                      X.........X                     ",
"                      +.........+                     ",
"                      O.........O                     ",
"                     o...........o                    ",
"                     X...........X                    ",
"                     +...........+                    ",
"                    oO...........Oo                   ",
"                    X.............X                   ",
"                    oXXXXXXXXXXXXXo                   ",
"                                                      ",
"                                                      ",
"                                                      ",
"                                                      ",
"                                                      ",
"                                                      ",
"                                                      ",
"                                                      ",
"                                                      ",
"                                                      ",
"                                                      ",
"                                                      ",
"                                                      ",
"                                                      "
};
