/* XPM */
static char *d639dd6d2b564cdba048d084a620f3fcoAtfQ73DirvSRpmw[] = {
/* columns rows colors chars-per-pixel */
"54 54 5 1 ",
"  c #0B0B0B",
". c gray40",
"X c gray17",
"o c gray30",
"O c gray10",
/* pixels */
"                                                      ",
"                                                      ",
"                                                      ",
"                                                      ",
"                                                      ",
"                                                      ",
"                                                      ",
"                                                      ",
"                                                      ",
"                                                      ",
"                                                      ",
"                                                      ",
"                                                      ",
"                                                      ",
"                   OXXXXXXXXXXXXXO                    ",
"                   X.............X                    ",
"                   Oo...........oO                    ",
"                    o...........o                     ",
"                    X...........X                     ",
"                    O...........O                     ",
"                     o.........o                      ",
"                     o.........o                      ",
"                     X.........X                      ",
"                     Oo.......oO                      ",
"                      o.......o                       ",
"                      X.......X                       ",
"                      O.......O                       ",
"                       o.....o                        ",
"                       o.....o                        ",
"                       X.....X                        ",
"                       Oo...oO                        ",
"                        o...o                         ",
"                        X...X                         ",
"                        O...O                         ",
"                         o.o                          ",
"                         o.o                          ",
"                         X.X                          ",
"                         OoO                          ",
"                          X                           ",
"                                                      ",
"                                                      ",
"                                                      ",
"                                                      ",
"                                                      ",
"                                                      ",
"                                                      ",
"                                                      ",
"                                                      ",
"                                                      ",
"                                                      ",
"                                                      ",
"                                                      ",
"                                                      ",
"                                                      "
};
