/* XPM */
static char *_243619c41f343a2e9f9716c9f15fb38UJpqRSpU7cjDNaRk[] = {
/* columns rows colors chars-per-pixel */
"54 54 5 1 ",
"  c #0B0B0B",
". c gray40",
"X c gray17",
"o c gray30",
"O c gray10",
/* pixels */
"                                                      ",
"                                                      ",
"                                                      ",
"                                                      ",
"                                                      ",
"                                                      ",
"                                                      ",
"                                                      ",
"                                                      ",
"                                                      ",
"                                                      ",
"                                                      ",
"                                                      ",
"                                                      ",
"                                                      ",
"                                                      ",
"                                                      ",
"                                                      ",
"                                                      ",
"                                     OXO              ",
"                                  OXoo.X              ",
"                              OXoo.....X              ",
"                           OXoo........X              ",
"                       OXoo............X              ",
"                    OXoo...............X              ",
"                OXoo...................X              ",
"               Xo......................X              ",
"                OXoo...................X              ",
"                    OXoo...............X              ",
"                       OXoo............X              ",
"                           OXoo........X              ",
"                              OXoo.....X              ",
"                                  OXoo.X              ",
"                                     OXO              ",
"                                                      ",
"                                                      ",
"                                                      ",
"                                                      ",
"                                                      ",
"                                                      ",
"                                                      ",
"                                                      ",
"                                                      ",
"                                                      ",
"                                                      ",
"                                                      ",
"                                                      ",
"                                                      ",
"                                                      ",
"                                                      ",
"                                                      ",
"                                                      ",
"                                                      ",
"                                                      "
};
